<svg xmlns="http://www.w3.org/2000/svg" width="74.513" height="63.758" viewBox="0 0 74.513 63.758"><defs><style>.a{opacity:0.604;}.b{fill:#4c65ba;}.b,.f{opacity:0.36;}.c,.e{fill:#fff;}.d,.f{fill:#c31539;}.e{opacity:0.47;}.g{fill:#f7a9b4;opacity:0.39;}</style></defs><g transform="translate(-1164.353 -621.475)"><g class="a" transform="translate(1164.353 621.475)"><path class="b" d="M115.421,159.277l-41.1,13.58a1.917,1.917,0,0,1-2.421-1.219l-13.581-41.1a1.917,1.917,0,0,1,1.219-2.421l41.1-13.58a1.917,1.917,0,0,1,2.421,1.219l13.58,41.1A1.917,1.917,0,0,1,115.421,159.277Z" transform="translate(-55.198 -112.916)"/><path class="c" d="M105.4,154.234l-41.1,13.58a1.917,1.917,0,0,1-2.421-1.219l-13.58-41.1a1.917,1.917,0,0,1,1.219-2.421l41.1-13.58a1.917,1.917,0,0,1,2.421,1.219l13.58,41.1A1.917,1.917,0,0,1,105.4,154.234Z" transform="translate(-48.2 -109.393)"/><g transform="translate(4.538 4.574)"><rect class="d" width="39.096" height="39.096" transform="translate(0 12.264) rotate(-18.283)"/><path class="e" d="M96.457,217.949l-2.777-8.4,4.062-9.79a2.811,2.811,0,0,1,3.444-1.614l7.518,2.335a1,1,0,0,0,1.162-.443l6.26-10.418a5.2,5.2,0,0,1,6.491-2.092l6.894,2.966.064.193,4.863,14.719-.429.142Zm-1.812-8.369,2.387,7.226,36.263-11.981-4.515-13.666-6.52-2.805a4.293,4.293,0,0,0-5.359,1.727l-6.26,10.418a1.906,1.906,0,0,1-2.205.841L100.917,199a1.91,1.91,0,0,0-2.341,1.1Z" transform="translate(-84.506 -168.248)"/><path class="e" d="M132.841,171.105a4.813,4.813,0,1,1,1.506-.244A4.82,4.82,0,0,1,132.841,171.105Zm-.007-8.719a3.907,3.907,0,1,0,3.712,2.681A3.894,3.894,0,0,0,132.834,162.386Z" transform="translate(-108.496 -150.351)"/></g></g><g transform="translate(1201.121 637.491)"><path class="f" d="M210.2,204.484H178.112a1.917,1.917,0,0,1-1.917-1.917V170.479a1.917,1.917,0,0,1,1.917-1.917H210.2a1.917,1.917,0,0,1,1.917,1.917v32.088A1.917,1.917,0,0,1,210.2,204.484Z" transform="translate(-174.372 -166.739)"/><path class="c" d="M204.154,198.437H172.066a1.917,1.917,0,0,1-1.917-1.917V164.432a1.917,1.917,0,0,1,1.917-1.917h32.088a1.917,1.917,0,0,1,1.917,1.917V196.52A1.917,1.917,0,0,1,204.154,198.437Z" transform="translate(-170.149 -162.515)"/><g transform="translate(2.627 3.059)"><rect class="g" width="29.803" height="29.803" transform="translate(0.411)"/><path class="e" d="M209.571,233.051H178.863v-6.895l5.307-6.146a2.251,2.251,0,0,1,3.024-.361l4.883,3.488a.659.659,0,0,0,.814-.037l7.022-6.044a4.073,4.073,0,0,1,5.341.039l4.317,3.827v12.127Zm-29.8-.9h28.9V221.331l-4.013-3.558a3.166,3.166,0,0,0-4.151-.031l-7.022,6.044a1.561,1.561,0,0,1-1.93.087l-4.884-3.488a1.35,1.35,0,0,0-1.813.217l-5.087,5.891v5.654Z" transform="translate(-178.863 -202.988)"/><path class="e" d="M227,195.825a3.775,3.775,0,1,1,3.775-3.775A3.779,3.779,0,0,1,227,195.825Zm0-6.646a2.871,2.871,0,1,0,2.871,2.871A2.874,2.874,0,0,0,227,189.18Z" transform="translate(-209.847 -183.567)"/></g></g><g transform="translate(1185 655.772)"><path class="f" d="M149.233,247.285l-18.14,6.8a1.917,1.917,0,0,1-2.468-1.122l-6.8-18.14a1.917,1.917,0,0,1,1.122-2.468l18.14-6.8a1.917,1.917,0,0,1,2.468,1.122l6.8,18.14A1.917,1.917,0,0,1,149.233,247.285Z" transform="translate(-120.191 -224.744)"/><path class="c" d="M144.205,245l-18.14,6.8a1.917,1.917,0,0,1-2.468-1.123l-6.8-18.14a1.917,1.917,0,0,1,1.122-2.468l18.14-6.8a1.917,1.917,0,0,1,2.468,1.122l6.8,18.14A1.917,1.917,0,0,1,144.205,245Z" transform="translate(-116.679 -223.146)"/><g transform="translate(1.983 1.995)"><rect class="d" width="19.252" height="19.252" transform="translate(0 6.756) rotate(-20.543)"/><path class="e" d="M140.915,276.022l-1.64-4.377,1.838-4.976a1.613,1.613,0,0,1,1.938-1l3.745,1a.266.266,0,0,0,.3-.129l2.878-5.248a2.793,2.793,0,0,1,3.437-1.259l3.546,1.363,2.83,7.553Zm-.675-4.379,1.2,3.215,17.181-6.438-2.37-6.325-3.166-1.217a1.884,1.884,0,0,0-2.32.85l-2.878,5.247a1.167,1.167,0,0,1-1.329.568l-3.745-1a.71.71,0,0,0-.856.443Z" transform="translate(-134.445 -250.779)"/><path class="e" d="M157.192,253.193a2.6,2.6,0,1,1,2.43-3.511h0a2.6,2.6,0,0,1-2.43,3.511Zm-.005-4.293a1.694,1.694,0,1,0,1.589,1.1A1.687,1.687,0,0,0,157.187,248.9Z" transform="translate(-145.142 -242.498)"/></g></g></g></svg>