<svg xmlns="http://www.w3.org/2000/svg" xmlns:xlink="http://www.w3.org/1999/xlink" width="472.042" height="550.481" viewBox="0 0 472.042 550.481"><defs><style>.a{fill:none;}.b{clip-path:url(#a);}.c,.d,.e{fill:#fdfeff;}.c{opacity:0.35;}.d{opacity:0.09;}.e{opacity:0.22;}.f{fill:#858585;}</style><clipPath id="a"><rect class="a" width="472.042" height="550.481"/></clipPath></defs><g transform="translate(567.004 -370.552)"><g class="b" transform="translate(-567.004 370.552)"><g transform="translate(-129.657 83.16)"><path class="c" d="M-527.856,761.714l-43.9-76.063-35.35,61.207,87.836,152.118,79.244-137.262Z" transform="translate(689.287 -395.772)"/><path class="d" d="M-441.361,748.436l-52.486-90.911h104.971l-35.342-61.208H-599.856l87.811,152.118Z" transform="translate(690.62 -412.199)"/><path class="e" d="M-466.861,673.1l43.918,76.071-43.918,76.055h70.676L-308.358,673.1Z" transform="translate(715.075 -398.08)"/><g transform="translate(0 176.302)"><path class="f" d="M-527.749,952.459-676.523,694.8l.341-.592,60.351-104.5,74.361,128.836h148.76ZM-673.791,694.8l146.042,252.92,130.936-226.805H-542.837l-.342-.592-72.652-125.876Z" transform="translate(676.523 -589.715)"/></g><g transform="translate(13.726)"><path class="f" d="M-394.839,698.451H-516.2l-.342-.592L-664.929,440.8h297.493l.342.592,60.338,104.5H-482.921Zm-119.991-2.368h115.889l-88.082-152.568h176.165L-368.8,443.164H-660.83Z" transform="translate(664.929 -440.796)"/></g><g transform="translate(277.959 152.556)"><path class="f" d="M-320.392,827.326H-441.736l74.388-128.82-74.388-128.849h270.105Zm-117.242-2.368h115.876l146.026-252.933h-261.9l73.018,126.481-.341.592Z" transform="translate(441.736 -569.657)"/></g></g></g></g></svg>