<svg xmlns="http://www.w3.org/2000/svg" width="133.151" height="51.042" viewBox="0 0 133.151 51.042"><defs><style>.a{fill:#fff;}</style></defs><g transform="translate(-328.044 -101.441)"><g transform="translate(352.279 145.351)"><path class="a" d="M367.752,160.9h-6.89v1.04h2.9v5.988h1.11v-5.988h2.885Z" transform="translate(-360.862 -160.902)"/><path class="a" d="M372.015,160.9l-3.423,7.028h1.2l.9-1.9h3.951l.91,1.9h1.187l-3.431-7.028Zm-.822,4.107,1.447-3.049.016-.036.017.036,1.474,3.049Z" transform="translate(-362.884 -160.902)"/><path class="a" d="M385.88,164.178a1.525,1.525,0,0,0,1.187-1.5v-.01c0-1.083-.8-1.767-2.46-1.767h-3.535v7.028h3.785c1.388,0,2.54-.667,2.54-2.046v-.008A1.712,1.712,0,0,0,385.88,164.178Zm-3.7-2.236H384.5c1.014,0,1.481.286,1.481.919v.009c0,.624-.441.935-1.453.935h-2.35Zm4.117,3.926c0,.685-.563,1.013-1.578,1.013h-2.539v-2.054h2.609c1.014,0,1.508.331,1.508,1.033Z" transform="translate(-366.148 -160.902)"/><path class="a" d="M393.666,160.9l-3.423,7.028h1.2l.9-1.9h3.951l.911,1.9h1.187l-3.432-7.028Zm-.823,4.107,1.447-3.049.016-.036.018.036,1.474,3.049Z" transform="translate(-368.546 -160.902)"/><path class="a" d="M405.962,160.9h-3.241v7.028h3.294c2.547,0,3.952-1.265,3.96-3.543v-.01C409.975,162.14,408.553,160.9,405.962,160.9Zm2.808,3.485c0,1.594-1,2.5-2.782,2.5h-2.157v-4.947h2.2c1.751,0,2.739.885,2.739,2.435Z" transform="translate(-371.81 -160.902)"/><path class="a" d="M420.6,164.75c0,1.636-1.084,2.2-2.469,2.2-1.568,0-2.557-.685-2.557-2.2V160.9h-1.11v4.142c0,2.062,1.525,2.989,3.667,2.989,2.218,0,3.579-1.04,3.579-2.989V160.9H420.6Z" transform="translate(-374.88 -160.902)"/><path class="a" d="M427.838,166.889V160.9H426.73v7.028h5.58v-1.041Z" transform="translate(-378.089 -160.902)"/></g><g transform="translate(328.044 112.116)"><path class="a" d="M344.5,135.616h-6.252c-4.149,0-6.511-1.96-6.511-5.937v-2.421h-3.689v2.881c0,5.878,3.458,9.164,9.623,9.164h10.489V115.937H344.5Z" transform="translate(-328.044 -115.907)"/><path class="a" d="M371.46,125.534h-7.773v3.66h8.291c3.055,0,4.553,1.642,4.553,4.7v4.236h-15.67v3.688h19.126v-7.577C379.988,128.5,377.311,125.534,371.46,125.534Z" transform="translate(-336.627 -118.417)"/><path class="a" d="M411.4,151.521a2.131,2.131,0,1,0,0,4.236,2.118,2.118,0,0,0,2.306-2.133A2.148,2.148,0,0,0,411.4,151.521Z" transform="translate(-349.227 -125.214)"/><path class="a" d="M424.5,120.1A2.1,2.1,0,0,0,426.8,118a2.315,2.315,0,0,0-4.612,0A2.111,2.111,0,0,0,424.5,120.1Z" transform="translate(-352.667 -115.897)"/><path class="a" d="M418.312,135.617h-9.339V123.024h-3.658v12.593h-8.732v-19.68h-3.659V139.3H421.97V123.024h-3.658Z" transform="translate(-345.012 -115.907)"/><path class="a" d="M433.469,115.9a2.149,2.149,0,0,0-2.3,2.1,2.315,2.315,0,1,0,2.3-2.1Z" transform="translate(-355.013 -115.897)"/></g><g transform="translate(415.695 101.441)"><path class="a" d="M457.848,132.183l-6.155-10.664-4.956,8.581,12.314,21.327,11.11-19.244Z" transform="translate(-446.737 -106.692)"/><path class="a" d="M470.588,122.767l-7.358-12.746h14.717l-4.955-8.581H448.367l12.311,21.327Z" transform="translate(-447.164 -101.441)"/><path class="a" d="M478.259,118.7l6.157,10.665-6.157,10.663h9.909L500.482,118.7Z" transform="translate(-454.982 -105.954)"/></g></g></svg>